<svg width="1066" height="264" viewBox="0 0 1066 264" fill="none" xmlns="http://www.w3.org/2000/svg">
<path d="M127.085 0.0121894C141.504 0.169725 155.75 3.18275 169 8.8784C220.969 31.8053 227.926 88.7411 231.539 139.033C233.429 165.336 235.36 192.829 224.354 217.578C216.332 235.615 199.54 252.189 180.924 259.278C178.497 251.46 176.958 242.666 168.367 239.434C164.95 240.908 158.598 245.133 154.492 247.194C140.114 254.407 126.251 258.51 110.445 261.183C94.3391 263.825 76.5652 263.991 60.3027 263.129C55.7676 262.891 50.7914 262.85 46.3262 262.319C53.6812 249.516 56.7978 242.335 61.1064 228.053C40.6426 233.943 21.2363 235.966 0 233.252C10.1224 217.761 14.1592 202.674 17.2803 184.468C22.2648 155.394 22.7457 125.997 25.8965 96.7456C28.4114 73.4015 36.3566 51.4033 51.7148 33.3745C69.5412 12.4482 92.3605 2.44966 119.408 0.185041C120.995 -0.0319343 125.426 -0.00712043 127.085 0.0121894ZM135.192 18.9673C130.972 18.6116 124.318 18.0672 120.159 18.7339C81.0367 21.684 53.725 49.074 48.7461 87.4604C43.1849 130.339 45.4572 170.717 29.1035 211.658C42.9236 210.303 56.4008 206.543 68.9258 200.547C72.4429 198.889 77.5468 195.798 80.5576 194.517C82.1845 210.956 77.9131 229.431 71.9561 244.663C86.2943 245.877 105.802 243.702 119.562 239.617C145.944 232.566 167.77 219.93 186.054 199.803C186.887 198.887 187.934 197.847 188.882 197.073C191.138 205.735 191.9 216.15 194.339 225.416C206.436 215.637 211.192 204.64 212.727 189.227C213.954 176.459 213.639 163.587 212.841 150.801C211.431 128.196 209.404 105.898 204.525 83.7661C196.791 48.6867 172.102 22.077 135.192 18.9673Z" fill="#0191FC"/>
<path d="M153.948 129.117C154.573 129.109 154.334 129.076 154.926 129.344L154.997 129.881C151.288 139.188 141.333 150.831 134.598 158.042C137.118 171.833 140.599 185.56 143.536 199.274C144.288 202.778 145.2 206.198 145.571 209.776C142.126 213.79 130.339 224.995 126.061 227.518C124.406 226.309 121.664 223.638 120.131 222.185C115.646 218 111.326 213.638 107.181 209.115C106.322 208.119 106.046 207.649 105.37 206.506C106.158 202.019 107.655 196.48 108.671 191.945C111.206 180.634 114.175 169.226 116.395 157.853C109.186 152.782 102.313 146.984 97.3156 139.649C96.2475 138.082 93.2908 132.984 93.385 131.223L93.6836 130.978C95.0454 131.132 97.9249 132.481 99.3228 133.049C103.921 134.919 108.666 135.841 113.565 136.405C129.01 138.183 140.169 134.894 153.948 129.117Z" fill="#0191FC"/>
<path d="M90.2068 63.926C93.821 63.6188 97.4346 64.5211 100.48 66.4909C114.182 75.5281 111.454 102.101 93.4166 105.741C89.146 105.944 85.8072 105.511 82.261 103.019C71.622 95.5442 71.3588 75.3525 81.5643 67.3952C84.3465 65.2259 86.8453 64.4646 90.2068 63.926Z" fill="#0191FC"/>
<path d="M158.05 63.9243C182.07 61.9359 183.943 101.313 162.023 105.715C137.716 107.704 135.584 67.5732 158.05 63.9243Z" fill="#0191FC"/>
<path d="M348.428 195.173C340.745 195.173 333.865 193.682 327.788 190.701C321.825 187.72 317.181 183.19 313.856 177.113C310.531 170.921 308.868 163.066 308.868 153.549V101.261H335.7V149.593C335.7 157.276 337.305 162.952 340.516 166.621C343.841 170.176 348.485 171.953 354.448 171.953C358.576 171.953 362.245 171.093 365.456 169.373C368.667 167.538 371.189 164.786 373.024 161.117C374.859 157.333 375.776 152.632 375.776 147.013V101.261H402.608V193.797H377.152V168.341L381.796 175.737C378.7 182.158 374.113 187.032 368.036 190.357C362.073 193.568 355.537 195.173 348.428 195.173ZM427.466 193.797V101.261H453.094V126.889L448.278 119.149C451.603 112.957 456.362 108.198 462.554 104.873C468.746 101.548 475.798 99.8849 483.71 99.8849C491.049 99.8849 497.585 101.376 503.318 104.357C509.166 107.224 513.753 111.696 517.078 117.773C520.403 123.736 522.066 131.418 522.066 140.821V193.797H495.234V144.949C495.234 137.496 493.571 131.992 490.246 128.437C487.035 124.882 482.449 123.105 476.486 123.105C472.243 123.105 468.402 124.022 464.962 125.857C461.637 127.577 458.999 130.272 457.05 133.941C455.215 137.61 454.298 142.312 454.298 148.045V193.797H427.466ZM606.416 195.861C596.899 195.861 588.127 194.37 580.1 191.389C572.188 188.293 565.251 183.936 559.288 178.317C553.44 172.698 548.853 166.105 545.528 158.537C542.317 150.969 540.712 142.656 540.712 133.597C540.712 124.538 542.317 116.225 545.528 108.657C548.853 101.089 553.497 94.4955 559.46 88.8769C565.423 83.2582 572.417 78.9582 580.444 75.9769C588.471 72.8809 597.3 71.3329 606.932 71.3329C617.596 71.3329 627.171 73.1102 635.656 76.6649C644.256 80.2195 651.48 85.3795 657.328 92.1449L639.44 108.657C635.083 104.07 630.324 100.688 625.164 98.5089C620.004 96.2155 614.385 95.0689 608.308 95.0689C602.46 95.0689 597.128 95.9862 592.312 97.8209C587.496 99.6555 583.311 102.293 579.756 105.733C576.316 109.173 573.621 113.244 571.672 117.945C569.837 122.646 568.92 127.864 568.92 133.597C568.92 139.216 569.837 144.376 571.672 149.077C573.621 153.778 576.316 157.906 579.756 161.461C583.311 164.901 587.439 167.538 592.14 169.373C596.956 171.208 602.231 172.125 607.964 172.125C613.468 172.125 618.8 171.265 623.96 169.545C629.235 167.71 634.337 164.672 639.268 160.429L655.092 180.553C648.556 185.484 640.931 189.268 632.216 191.905C623.616 194.542 615.016 195.861 606.416 195.861ZM655.092 180.553L629.636 176.941V131.705H655.092V180.553ZM679.083 193.797V66.1729H705.915V126.889L699.895 119.149C703.221 112.957 707.979 108.198 714.171 104.873C720.363 101.548 727.415 99.8849 735.327 99.8849C742.666 99.8849 749.202 101.376 754.935 104.357C760.783 107.224 765.37 111.696 768.695 117.773C772.021 123.736 773.683 131.418 773.683 140.821V193.797H746.851V144.949C746.851 137.496 745.189 131.992 741.863 128.437C738.653 124.882 734.066 123.105 728.103 123.105C723.861 123.105 720.019 124.022 716.579 125.857C713.254 127.577 710.617 130.272 708.667 133.941C706.833 137.61 705.915 142.312 705.915 148.045V193.797H679.083ZM842.709 195.173C832.848 195.173 824.076 193.109 816.393 188.981C808.825 184.853 802.805 179.234 798.333 172.125C793.976 164.901 791.797 156.702 791.797 147.529C791.797 138.241 793.976 130.042 798.333 122.933C802.805 115.709 808.825 110.09 816.393 106.077C824.076 101.949 832.848 99.8849 842.709 99.8849C852.456 99.8849 861.17 101.949 868.853 106.077C876.536 110.09 882.556 115.652 886.913 122.761C891.27 129.87 893.449 138.126 893.449 147.529C893.449 156.702 891.27 164.901 886.913 172.125C882.556 179.234 876.536 184.853 868.853 188.981C861.17 193.109 852.456 195.173 842.709 195.173ZM842.709 173.157C847.181 173.157 851.194 172.125 854.749 170.061C858.304 167.997 861.113 165.073 863.177 161.289C865.241 157.39 866.273 152.804 866.273 147.529C866.273 142.14 865.241 137.553 863.177 133.769C861.113 129.985 858.304 127.061 854.749 124.997C851.194 122.933 847.181 121.901 842.709 121.901C838.237 121.901 834.224 122.933 830.669 124.997C827.114 127.061 824.248 129.985 822.069 133.769C820.005 137.553 818.973 142.14 818.973 147.529C818.973 152.804 820.005 157.39 822.069 161.289C824.248 165.073 827.114 167.997 830.669 170.061C834.224 172.125 838.237 173.157 842.709 173.157ZM942.516 195.173C934.604 195.173 926.979 194.256 919.64 192.421C912.416 190.472 906.683 188.064 902.44 185.197L911.384 165.933C915.627 168.57 920.615 170.749 926.348 172.469C932.196 174.074 937.929 174.877 943.548 174.877C949.74 174.877 954.097 174.132 956.62 172.641C959.257 171.15 960.576 169.086 960.576 166.449C960.576 164.27 959.544 162.665 957.48 161.633C955.531 160.486 952.893 159.626 949.568 159.053C946.243 158.48 942.573 157.906 938.56 157.333C934.661 156.76 930.705 156.014 926.692 155.097C922.679 154.065 919.009 152.574 915.684 150.625C912.359 148.676 909.664 146.038 907.6 142.713C905.651 139.388 904.676 135.088 904.676 129.813C904.676 123.965 906.339 118.805 909.664 114.333C913.104 109.861 918.035 106.364 924.456 103.841C930.877 101.204 938.56 99.8849 947.504 99.8849C953.811 99.8849 960.232 100.573 966.768 101.949C973.304 103.325 978.751 105.332 983.108 107.969L974.164 127.061C969.692 124.424 965.163 122.646 960.576 121.729C956.104 120.697 951.747 120.181 947.504 120.181C941.541 120.181 937.184 120.984 934.432 122.589C931.68 124.194 930.304 126.258 930.304 128.781C930.304 131.074 931.279 132.794 933.228 133.941C935.292 135.088 937.987 136.005 941.312 136.693C944.637 137.381 948.249 138.012 952.148 138.585C956.161 139.044 960.175 139.789 964.188 140.821C968.201 141.853 971.813 143.344 975.024 145.293C978.349 147.128 981.044 149.708 983.108 153.033C985.172 156.244 986.204 160.486 986.204 165.761C986.204 171.494 984.484 176.597 981.044 181.069C977.604 185.426 972.616 188.866 966.08 191.389C959.659 193.912 951.804 195.173 942.516 195.173ZM1040.6 195.173C1029.71 195.173 1021.22 192.421 1015.14 186.917C1009.07 181.298 1006.03 172.985 1006.03 161.977V80.7929H1032.86V161.633C1032.86 165.532 1033.89 168.57 1035.96 170.749C1038.02 172.813 1040.83 173.845 1044.38 173.845C1048.63 173.845 1052.24 172.698 1055.22 170.405L1062.44 189.325C1059.69 191.274 1056.37 192.765 1052.47 193.797C1048.68 194.714 1044.73 195.173 1040.6 195.173ZM991.751 121.901V101.261H1055.91V121.901H991.751Z" fill="#0191FC"/>
</svg>
