<svg width="469" height="449" viewBox="0 0 469 449" fill="none" xmlns="http://www.w3.org/2000/svg">
<path d="M248.335 51.5704C267.228 51.7768 285.895 55.7254 303.257 63.1886C371.353 93.2301 380.469 167.833 385.203 233.731C387.68 268.197 390.21 304.221 375.788 336.65C365.278 360.284 343.274 382.001 318.881 391.289C315.702 381.045 313.684 369.523 302.428 365.288C297.95 367.219 289.627 372.755 284.247 375.455C265.407 384.907 247.243 390.284 226.532 393.786C205.428 397.249 182.139 397.466 160.83 396.337C154.887 396.024 148.367 395.97 142.516 395.275C152.153 378.498 156.237 369.09 161.883 350.376C135.069 358.093 109.64 360.743 81.8135 357.188C95.077 336.889 100.366 317.121 104.456 293.266C110.987 255.17 111.618 216.651 115.746 178.322C119.041 147.734 129.453 118.909 149.577 95.2853C172.935 67.8653 202.835 54.7653 238.276 51.798C240.356 51.5137 246.161 51.5451 248.335 51.5704ZM258.958 76.4073C253.428 75.9412 244.709 75.2281 239.26 76.1017C187.997 79.9674 152.21 115.856 145.687 166.154C138.4 222.339 141.377 275.246 119.948 328.892C138.057 327.117 155.716 322.189 172.128 314.333C176.737 312.16 183.425 308.111 187.37 306.433C189.502 327.973 183.904 352.18 176.099 372.139C194.886 373.73 220.448 370.88 238.479 365.526C273.047 356.288 301.645 339.731 325.603 313.359C326.694 312.158 328.066 310.796 329.308 309.781C332.264 321.131 333.263 334.778 336.459 346.92C352.309 334.106 358.542 319.696 360.553 299.501C362.161 282.771 361.748 265.905 360.703 249.151C358.855 219.531 356.198 190.314 349.806 161.314C339.671 115.349 307.321 80.482 258.958 76.4073Z" fill="#0191FC"/>
<path d="M283.534 220.735C284.353 220.726 284.04 220.682 284.816 221.034L284.909 221.736C280.049 233.932 267.005 249.188 258.179 258.637C261.482 276.708 266.043 294.694 269.891 312.664C270.877 317.256 272.072 321.737 272.558 326.424C268.044 331.685 252.599 346.367 246.993 349.672C244.826 348.088 241.232 344.589 239.223 342.684C233.346 337.201 227.686 331.485 222.255 325.559C221.129 324.254 220.768 323.638 219.881 322.14C220.914 316.26 222.875 309.003 224.207 303.061C227.529 288.24 231.419 273.291 234.327 258.389C224.882 251.744 215.876 244.147 209.328 234.536C207.928 232.483 204.054 225.802 204.178 223.496L204.569 223.174C206.353 223.376 210.126 225.144 211.958 225.889C217.983 228.339 224.201 229.547 230.62 230.286C250.858 232.615 265.48 228.306 283.534 220.735Z" fill="#0191FC"/>
<path d="M200.014 135.315C204.75 134.913 209.485 136.095 213.476 138.676C231.429 150.518 227.854 185.336 204.22 190.107C198.624 190.372 194.249 189.804 189.603 186.54C175.662 176.745 175.317 150.288 188.69 139.861C192.335 137.019 195.61 136.021 200.014 135.315Z" fill="#0191FC"/>
<path d="M288.909 135.314C320.383 132.709 322.837 184.305 294.116 190.073C262.265 192.68 259.472 140.095 288.909 135.314Z" fill="#0191FC"/>
</svg>
