<svg width="769" height="723" viewBox="0 0 769 723" fill="none" xmlns="http://www.w3.org/2000/svg">
<path d="M402.527 0.0204309C427.083 0.28873 451.345 5.42095 473.911 15.121C562.417 54.1667 574.265 151.13 580.418 236.779C583.637 281.576 586.926 328.399 568.181 370.547C554.52 401.265 525.922 429.491 494.218 441.563C490.085 428.249 487.464 413.273 472.834 407.768C467.014 410.278 456.196 417.474 449.203 420.983C424.716 433.268 401.108 440.256 374.189 444.809C346.76 449.309 316.491 449.59 288.795 448.123C281.071 447.716 272.596 447.646 264.991 446.742C277.517 424.938 282.825 412.709 290.163 388.387C255.312 398.417 222.261 401.862 186.095 397.24C203.334 370.858 210.208 345.163 215.523 314.158C224.012 264.644 224.832 214.58 230.198 164.764C234.481 125.007 248.013 87.5421 274.169 56.8378C304.528 21.1995 343.39 4.17312 389.453 0.316329C392.156 -0.0532061 399.702 -0.0124552 402.527 0.0204309ZM416.334 32.3027C409.147 31.6969 397.815 30.7709 390.732 31.9062C324.105 36.9304 277.592 83.5761 269.112 148.95C259.641 221.974 263.51 290.74 235.659 360.465C259.195 358.158 282.148 351.754 303.479 341.543C309.468 338.719 318.161 333.454 323.289 331.273C326.06 359.27 318.784 390.733 308.639 416.674C333.058 418.742 366.281 415.038 389.717 408.08C434.646 396.072 471.816 374.553 502.953 340.275C504.372 338.715 506.156 336.944 507.77 335.626C511.612 350.378 512.91 368.114 517.064 383.895C537.665 367.24 545.765 348.513 548.379 322.265C550.469 300.52 549.933 278.598 548.574 256.823C546.173 218.325 542.719 180.352 534.411 142.659C521.239 82.9169 479.194 37.5986 416.334 32.3027Z" fill="#0191FC"/>
<path d="M448.277 219.892C449.341 219.879 448.934 219.823 449.943 220.279L450.064 221.193C443.746 237.044 426.793 256.873 415.322 269.153C419.614 292.64 425.542 316.018 430.544 339.374C431.825 345.342 433.379 351.166 434.01 357.259C428.143 364.095 408.069 383.178 400.783 387.475C397.966 385.415 393.295 380.867 390.685 378.392C383.046 371.265 375.689 363.836 368.63 356.133C367.166 354.437 366.697 353.637 365.545 351.69C366.888 344.048 369.436 334.615 371.167 326.893C375.485 307.629 380.541 288.2 384.321 268.831C372.044 260.194 360.339 250.32 351.829 237.829C350.009 235.16 344.974 226.478 345.135 223.479L345.643 223.061C347.962 223.324 352.866 225.622 355.247 226.59C363.078 229.774 371.159 231.344 379.503 232.304C405.806 235.332 424.811 229.731 448.277 219.892Z" fill="#0191FC"/>
<path d="M339.723 108.87C345.878 108.347 352.032 109.883 357.219 113.238C380.554 128.629 375.907 173.883 345.189 180.084C337.916 180.429 332.23 179.691 326.191 175.448C308.072 162.717 307.624 128.33 325.004 114.778C329.743 111.083 333.998 109.787 339.723 108.87Z" fill="#0191FC"/>
<path d="M455.261 108.866C496.17 105.48 499.359 172.541 462.029 180.038C420.632 183.426 417.001 115.08 455.261 108.866Z" fill="#0191FC"/>
<path d="M51.428 681.292C43.7453 681.292 36.8653 679.801 30.788 676.82C24.8253 673.839 20.1813 669.309 16.856 663.232C13.5307 657.04 11.868 649.185 11.868 639.668V587.38H38.7V635.712C38.7 643.395 40.3053 649.071 43.516 652.74C46.8413 656.295 51.4853 658.072 57.448 658.072C61.576 658.072 65.2453 657.212 68.456 655.492C71.6667 653.657 74.1893 650.905 76.024 647.236C77.8587 643.452 78.776 638.751 78.776 633.132V587.38H105.608V679.916H80.152V654.46L84.796 661.856C81.7 668.277 77.1133 673.151 71.036 676.476C65.0733 679.687 58.5373 681.292 51.428 681.292ZM130.466 679.916V587.38H156.094V613.008L151.278 605.268C154.603 599.076 159.362 594.317 165.554 590.992C171.746 587.667 178.798 586.004 186.71 586.004C194.049 586.004 200.585 587.495 206.318 590.476C212.166 593.343 216.753 597.815 220.078 603.892C223.403 609.855 225.066 617.537 225.066 626.94V679.916H198.234V631.068C198.234 623.615 196.571 618.111 193.246 614.556C190.035 611.001 185.449 609.224 179.486 609.224C175.243 609.224 171.402 610.141 167.962 611.976C164.637 613.696 161.999 616.391 160.05 620.06C158.215 623.729 157.298 628.431 157.298 634.164V679.916H130.466ZM309.416 681.98C299.899 681.98 291.127 680.489 283.1 677.508C275.188 674.412 268.251 670.055 262.288 664.436C256.44 658.817 251.853 652.224 248.528 644.656C245.317 637.088 243.712 628.775 243.712 619.716C243.712 610.657 245.317 602.344 248.528 594.776C251.853 587.208 256.497 580.615 262.46 574.996C268.423 569.377 275.417 565.077 283.444 562.096C291.471 559 300.3 557.452 309.932 557.452C320.596 557.452 330.171 559.229 338.656 562.784C347.256 566.339 354.48 571.499 360.328 578.264L342.44 594.776C338.083 590.189 333.324 586.807 328.164 584.628C323.004 582.335 317.385 581.188 311.308 581.188C305.46 581.188 300.128 582.105 295.312 583.94C290.496 585.775 286.311 588.412 282.756 591.852C279.316 595.292 276.621 599.363 274.672 604.064C272.837 608.765 271.92 613.983 271.92 619.716C271.92 625.335 272.837 630.495 274.672 635.196C276.621 639.897 279.316 644.025 282.756 647.58C286.311 651.02 290.439 653.657 295.14 655.492C299.956 657.327 305.231 658.244 310.964 658.244C316.468 658.244 321.8 657.384 326.96 655.664C332.235 653.829 337.337 650.791 342.268 646.548L358.092 666.672C351.556 671.603 343.931 675.387 335.216 678.024C326.616 680.661 318.016 681.98 309.416 681.98ZM358.092 666.672L332.636 663.06V617.824H358.092V666.672ZM382.083 679.916V552.292H408.915V613.008L402.895 605.268C406.221 599.076 410.979 594.317 417.171 590.992C423.363 587.667 430.415 586.004 438.327 586.004C445.666 586.004 452.202 587.495 457.935 590.476C463.783 593.343 468.37 597.815 471.695 603.892C475.021 609.855 476.683 617.537 476.683 626.94V679.916H449.851V631.068C449.851 623.615 448.189 618.111 444.863 614.556C441.653 611.001 437.066 609.224 431.103 609.224C426.861 609.224 423.019 610.141 419.579 611.976C416.254 613.696 413.617 616.391 411.667 620.06C409.833 623.729 408.915 628.431 408.915 634.164V679.916H382.083ZM545.709 681.292C535.848 681.292 527.076 679.228 519.393 675.1C511.825 670.972 505.805 665.353 501.333 658.244C496.976 651.02 494.797 642.821 494.797 633.648C494.797 624.36 496.976 616.161 501.333 609.052C505.805 601.828 511.825 596.209 519.393 592.196C527.076 588.068 535.848 586.004 545.709 586.004C555.456 586.004 564.17 588.068 571.853 592.196C579.536 596.209 585.556 601.771 589.913 608.88C594.27 615.989 596.449 624.245 596.449 633.648C596.449 642.821 594.27 651.02 589.913 658.244C585.556 665.353 579.536 670.972 571.853 675.1C564.17 679.228 555.456 681.292 545.709 681.292ZM545.709 659.276C550.181 659.276 554.194 658.244 557.749 656.18C561.304 654.116 564.113 651.192 566.177 647.408C568.241 643.509 569.273 638.923 569.273 633.648C569.273 628.259 568.241 623.672 566.177 619.888C564.113 616.104 561.304 613.18 557.749 611.116C554.194 609.052 550.181 608.02 545.709 608.02C541.237 608.02 537.224 609.052 533.669 611.116C530.114 613.18 527.248 616.104 525.069 619.888C523.005 623.672 521.973 628.259 521.973 633.648C521.973 638.923 523.005 643.509 525.069 647.408C527.248 651.192 530.114 654.116 533.669 656.18C537.224 658.244 541.237 659.276 545.709 659.276ZM645.516 681.292C637.604 681.292 629.979 680.375 622.64 678.54C615.416 676.591 609.683 674.183 605.44 671.316L614.384 652.052C618.627 654.689 623.615 656.868 629.348 658.588C635.196 660.193 640.929 660.996 646.548 660.996C652.74 660.996 657.097 660.251 659.62 658.76C662.257 657.269 663.576 655.205 663.576 652.568C663.576 650.389 662.544 648.784 660.48 647.752C658.531 646.605 655.893 645.745 652.568 645.172C649.243 644.599 645.573 644.025 641.56 643.452C637.661 642.879 633.705 642.133 629.692 641.216C625.679 640.184 622.009 638.693 618.684 636.744C615.359 634.795 612.664 632.157 610.6 628.832C608.651 625.507 607.676 621.207 607.676 615.932C607.676 610.084 609.339 604.924 612.664 600.452C616.104 595.98 621.035 592.483 627.456 589.96C633.877 587.323 641.56 586.004 650.504 586.004C656.811 586.004 663.232 586.692 669.768 588.068C676.304 589.444 681.751 591.451 686.108 594.088L677.164 613.18C672.692 610.543 668.163 608.765 663.576 607.848C659.104 606.816 654.747 606.3 650.504 606.3C644.541 606.3 640.184 607.103 637.432 608.708C634.68 610.313 633.304 612.377 633.304 614.9C633.304 617.193 634.279 618.913 636.228 620.06C638.292 621.207 640.987 622.124 644.312 622.812C647.637 623.5 651.249 624.131 655.148 624.704C659.161 625.163 663.175 625.908 667.188 626.94C671.201 627.972 674.813 629.463 678.024 631.412C681.349 633.247 684.044 635.827 686.108 639.152C688.172 642.363 689.204 646.605 689.204 651.88C689.204 657.613 687.484 662.716 684.044 667.188C680.604 671.545 675.616 674.985 669.08 677.508C662.659 680.031 654.804 681.292 645.516 681.292ZM743.599 681.292C732.706 681.292 724.22 678.54 718.143 673.036C712.066 667.417 709.027 659.104 709.027 648.096V566.912H735.859V647.752C735.859 651.651 736.891 654.689 738.955 656.868C741.019 658.932 743.828 659.964 747.383 659.964C751.626 659.964 755.238 658.817 758.219 656.524L765.443 675.444C762.691 677.393 759.366 678.884 755.467 679.916C751.683 680.833 747.727 681.292 743.599 681.292ZM694.751 608.02V587.38H758.907V608.02H694.751Z" fill="#0191FC"/>
</svg>
